:SAMPLES-PER-SECOND 30
:FULLY-SPECIFIED
:DEGREES
332
root  35.05690267 36.51126051 -14.8663228 9.346948624 1.89759779 3.129734516
lowerback  -8.11055088 0.3720519841 1.764890552
upperback  -3.976289988 0.04882790148 -2.340600014
thorax  0.4405919909 -0.1681119949 -3.407550097
lowerneck  -16.92340088 2.075969934 1.902559996
upperneck  16.18440056 1.530789971 3.28192997
head  7.776287079 1.104779959 0.9425839782
lclavicle  0 -4.497500157e-015 -2.743230041e-014
lhumerus  -43.15359879 25.01939964 71.32610321
lradius  -0.01795720868 -6.507048965e-006 27.96549988
lwrist  4.824992743e-007 -3.790274832e-007 -29.63759995
lhand  -4.406155244e-031 -36.73529816 -10.62880039
lfingers  90 7.125020027 -90
lthumb  94.72919349 -25.47123695 100.8886753
rclavicle  0 -4.497500157e-015 -2.743230041e-014
rhumerus  -51.68609619 -35.24710083 -54.72300339
rradius  -5.16745672e-007 2.214343908e-008 38.97880173
rwrist  1.129822067e-006 0.001802438172 -145.0200043
rhand  -1.773999677e-031 5.590250015 -7.348499775
rfingers  -90 -7.125020027 -90
rthumb  -84.69622623 -8.768715571 -58.66026416
rfemur  -12.52641582 14.63764095 13.74857998
rtibia  -1.200161695 1.008590221 21.37936592
rfoot  -0.789403677 -18.36070251 -40.32686615
rtoes  4.007831029 19.61044811 -101.7916226
lfemur  -10.41926575 -18.35315132 -18.53429985
ltibia  1.550599098 0.9000621438 16.21855545
lfoot  0.5189142227 -28.01388359 34.03320313
ltoes  -8.56872881 -18.13974105 -115.8256561
333
root  35.05681856 36.50951235 -14.87137351 9.369482994 1.856327295 3.121256828
lowerback  -8.104599953 0.3852529824 1.767850399
upperback  -3.98093009 0.06587330252 -2.339390039
thorax  0.4337509871 -0.1598999947 -3.406500101
lowerneck  -16.91970062 2.0631001 1.885439992
upperneck  16.17630005 1.519999981 3.27519989
head  7.778247356 1.098029971 0.9417930245
lclavicle  0 -4.497500157e-015 -2.743230041e-014
lhumerus  -43.15020752 24.99629974 71.35019684
lradius  -0.01328791957 -6.507048965e-006 27.94720078
lwrist  4.824992743e-007 -3.790274832e-007 -29.64419937
lhand  -4.40590283e-031 -36.73089981 -10.68789959
lfingers  90 7.125020027 -90
lthumb  94.73950072 -25.52942615 100.8892902
rclavicle  0 -4.497500157e-015 -2.743230041e-014
rhumerus  -52.43119812 -36.35820007 -53.41779709
rradius  -5.16745672e-007 2.214343908e-008 37.83190155
rwrist  1.129822067e-006 0.001802438172 -143.1660004
rhand  -1.774297528e-031 5.687670231 -7.568950176
rfingers  -90 -7.125020027 -90
rthumb  -84.7888736 -8.587147255 -58.58279321
rfemur  -12.58291435 14.66714096 13.74310875
rtibia  -1.198477983 1.009126544 21.40882874
rfoot  -0.7976740599 -18.38129425 -40.31055832
rtoes  4.028300588 19.60641202 -101.8526183
lfemur  -10.47197533 -18.30174828 -18.50395584
ltibia  1.523795843 0.9100182652 16.25612259
lfoot  0.5290225148 -28.04509926 34.04734802
ltoes  -8.519483323 -18.16230886 -115.6675763
334
root  35.05566815 36.50856318 -14.87622449 9.395365715 1.81909585 3.112734795
lowerback  -8.099049568 0.403611958 1.789250255
upperback  -3.987809896 0.08836369962 -2.33946991
thorax  0.4252200127 -0.1493110061 -3.416779995
lowerneck  -16.89959908 2.035150051 1.868119955
upperneck  16.16500092 1.494289994 3.244509935
head  7.77986002 1.081764698 0.935424149
lclavicle  0 -4.497500157e-015 -2.743230041e-014
lhumerus  -43.14904404 24.91580009 71.4108963
lradius  -0.008591691032 -6.507048965e-006 27.9601326
lwrist  4.824992743e-007 -3.790274832e-007 -29.64732361
lhand  -4.405151386e-031 -36.71780014 -10.72480011
lfingers  90 7.125020027 -90
lthumb  94.74111642 -25.56621247 100.8786579
rclavicle  0 -4.497500157e-015 -2.743230041e-014
rhumerus  -53.20930481 -37.2132988 -52.22249603
rradius  -5.16745672e-007 2.214343908e-008 36.84289932
rwrist  1.129822067e-006 0.001802438172 -142.0950012
rhand  -1.775042532e-031 5.924220085 -7.610159874
rfingers  -90 -7.125020027 -90
rthumb  -84.75395879 -8.568310363 -58.35563334
rfemur  -12.65354061 14.66577148 13.73894978
rtibia  -1.196460724 1.008778453 21.45750809
rfoot  -0.8189515471 -18.40477562 -40.29009628
rtoes  4.045141677 19.60307522 -101.9028109
lfemur  -10.51248837 -18.23883057 -18.47644043
ltibia  1.505045295 0.9349722862 16.26801682
lfoot  0.5336146951 -28.0946579 34.05171967
ltoes  -8.50423118 -18.16926565 -115.6186548
335
root  35.05566214 36.50717247 -14.88087271 9.414651871 1.786677122 3.097336769
lowerback  -8.091570854 0.4164710045 1.803560495
upperback  -3.989659071 0.1045010015 -2.322989941
thorax  0.4199160039 -0.1413040012 -3.406369925
lowerneck  -16.92440033 2.012559891 1.802160025
upperneck  16.18799973 1.488260031 3.207240105
head  7.780565739 1.072242022 0.9281001687
lclavicle  0 -4.497500157e-015 -2.743230041e-014
lhumerus  -43.15029907 24.90480042 71.47709656
lradius  0.0008400199586 -6.507048965e-006 27.94857788
lwrist  4.824992743e-007 -3.790274832e-007 -29.64430046
lhand  -4.406941955e-031 -36.74900055 -10.71310043
lfingers  90 7.125020027 -90
lthumb  94.75329061 -25.55360982 100.9109449
rclavicle  0 -4.497500157e-015 -2.743230041e-014
rhumerus  -53.88270569 -37.89479828 -51.15769577
rradius  -5.16745672e-007 2.214343908e-008 35.95230103
rwrist  1.129822067e-006 0.001802438172 -140.9980011
rhand  -3.550262549e-031 5.951759815 -7.67261982
rfingers  -90 -7.125020027 -90
rthumb  -84.78048671 -8.517052038 -58.33367559
rfemur  -12.70766258 14.69805431 13.73076344
rtibia  -1.195034266 1.006345153 21.49006844
rfoot  -0.8551318645 -18.4237442 -40.33745193
rtoes  4.064074663 19.59930653 -101.9592479
lfemur  -10.54335594 -18.13713646 -18.44050217
ltibia  1.486183405 0.9836015701 16.27589226
lfoot  0.5423845649 -28.19496536 34.040905
ltoes  -8.513935239 -18.16484124 -115.6497786
336
root  35.05593848 36.50798047 -14.88485712 9.441259384 1.757860065 3.090854168
lowerback  -8.089280128 0.4407300055 1.821400166
upperback  -3.989531517 0.1359950006 -2.312750101
thorax  0.4155650139 -0.1255549937 -3.403179884
lowerneck  -16.92550087 1.978819966 1.753819942
upperneck  16.18350029 1.461599946 3.18088007
head  7.780069828 1.054509997 0.9256389737
lclavicle  0 -4.497500157e-015 -2.743230041e-014
lhumerus  -43.15660095 24.85390091 71.56130219
lradius  -0.001105436357 -6.507048965e-006 27.95797157
lwrist  4.824992743e-007 -3.790274832e-007 -29.66430092
lhand  -4.405300586e-031 -36.72040176 -10.72439957
lfingers  90 7.125020027 -90
lthumb  94.74225044 -25.56571091 100.8814038
rclavicle  0 -4.497500157e-015 -2.743230041e-014
rhumerus  -54.55720139 -38.51549911 -50.16359711
rradius  -5.16745672e-007 2.214343908e-008 35.22100067
rwrist  1.129822067e-006 0.001802438172 -139.5010071
rhand  -1.775242907e-031 5.986219883 -7.881830215
rfingers  -90 -7.125020027 -90
rthumb  -84.88329923 -8.341505645 -58.31643225
rfemur  -12.76422024 14.71042347 13.72765636
rtibia  -1.195123196 0.9989823699 21.52389145
rfoot  -0.872397244 -18.46175957 -40.32696533
rtoes  4.099939364 19.59211694 -102.066185
lfemur  -10.60639477 -18.08995247 -18.41142464
ltibia  1.450451016 0.9904175997 16.31766129
lfoot  0.5284952521 -28.22418594 34.00728607
ltoes  -8.506763157 -18.16811184 -115.6267749
337
root  35.05554199 36.50953338 -14.88999795 9.459895134 1.729422927 3.072477102
lowerback  -8.10449028 0.4688710272 1.865479827
upperback  -3.988102198 0.1706770062 -2.323990107
thorax  0.4318790138 -0.1084569991 -3.436990023
lowerneck  -16.9197998 1.944970012 1.695760012
upperneck  16.14500046 1.433820009 3.180979967
head  7.765840054 1.038030028 0.931556046
lclavicle  0 -4.497500157e-015 -2.743230041e-014
lhumerus  -43.11309814 24.68129921 71.70030212
lradius  -0.002067125635 -6.507048965e-006 27.9564991
lwrist  4.824992743e-007 -3.790274832e-007 -29.53499985
lhand  -4.405300586e-031 -36.72040176 -10.72439957
lfingers  90 7.125020027 -90
lthumb  94.74225044 -25.56571091 100.8814038
rclavicle  0 -4.497500157e-015 -2.743230041e-014
rhumerus  -55.26050186 -39.19200134 -49.1523056
rradius  -5.16745672e-007 2.214343908e-008 34.62889862
rwrist  1.129822067e-006 0.001802438172 -137.7510071
rhand  -1.775242907e-031 5.986219883 -7.881830215
rfingers  -90 -7.125020027 -90
rthumb  -84.88329923 -8.341505645 -58.31643225
rfemur  -12.81949806 14.72691822 13.74381638
rtibia  -1.19852531 1.018594503 21.55818367
rfoot  -0.8637094498 -18.4385376 -40.2738533
rtoes  4.099939364 19.59211694 -102.066185
lfemur  -10.66438007 -18.02688217 -18.36061668
ltibia  1.412453651 1.014517426 16.36526871
lfoot  0.5297886133 -28.28895187 33.99211884
ltoes  -8.506763157 -18.16811184 -115.6267749
338
root  35.05288072 36.5109301 -14.89396433 9.466080666 1.708071828 3.068309307
lowerback  -8.12609005 0.4951379895 1.910500407
upperback  -3.986046553 0.2024510056 -2.323980093
thorax  0.4481239915 -0.09280650318 -3.459880114
lowerneck  -16.9368 1.917129993 1.625450015
upperneck  16.13380051 1.408179998 3.214169979
head  7.76432991 1.025149941 0.951194942
lclavicle  0 -4.497500157e-015 -2.743230041e-014
lhumerus  -43.08909988 24.64819908 71.77269745
lradius  -0.003018046962 -6.507048965e-006 27.94540215
lwrist  4.824992743e-007 -3.790274832e-007 -29.50889969
lhand  -4.405300586e-031 -36.72040176 -10.72439957
lfingers  90 7.125020027 -90
lthumb  94.74225044 -25.56571091 100.8814038
rclavicle  0 -4.497500157e-015 -2.743230041e-014
rhumerus  -56.01420212 -39.73920059 -48.20479584
rradius  -5.16745672e-007 2.214343908e-008 34.03850174
rwrist  1.129822067e-006 0.001802438172 -137.1840057
rhand  -1.775242907e-031 5.986219883 -7.881830215
rfingers  -90 -7.125020027 -90
rthumb  -84.88329923 -8.341505645 -58.31643225
rfemur  -12.85519981 14.75757217 13.74967098
rtibia  -1.205557346 1.030946136 21.59385109
rfoot  -0.8804262877 -18.42980194 -40.28792572
rtoes  4.099939364 19.59211694 -102.066185
lfemur  -10.72453117 -18.02152252 -18.32901955
ltibia  1.369069338 0.984205246 16.42818832
lfoot  0.4945884943 -28.24797821 33.92946625
ltoes  -8.506763157 -18.16811184 -115.6267749
339
root  35.05382388 36.51224272 -14.89831369 9.467627525 1.690974832 3.062225819
lowerback  -8.154850006 0.504117012 1.907489777
upperback  -3.984040022 0.2143190056 -2.318099976
thorax  0.4693189859 -0.08641819656 -3.451159954
lowerneck  -16.91410065 1.900429964 1.593160033
upperneck  16.06049919 1.397959948 3.220129967
head  7.735720158 1.018869996 0.9563199282
lclavicle  0 -4.497500157e-015 -2.743230041e-014
lhumerus  -43.08580017 24.6616993 71.79709625
lradius  -0.00396567164 -6.507048965e-006 27.92840004
lwrist  4.824992743e-007 -3.790274832e-007 -29.59600067
lhand  -4.405300586e-031 -36.72040176 -10.72439957
lfingers  90 7.125020027 -90
lthumb  94.74225044 -25.56571091 100.8814038
rclavicle  0 -4.497500157e-015 -2.743230041e-014
rhumerus  -56.72650528 -40.23320007 -47.38289642
rradius  -5.16745672e-007 2.214343908e-008 33.63570023
rwrist  1.129822067e-006 0.001802438172 -136.548996
rhand  -1.775242907e-031 5.986219883 -7.881830215
rfingers  -90 -7.125020027 -90
rthumb  -84.88329923 -8.341505645 -58.31643225
rfemur  -12.8742094 14.80624008 13.74832439
rtibia  -1.208799601 1.041105509 21.60559654
rfoot  -0.8905342221 -18.41365051 -40.32209015
rtoes  4.099939364 19.59211694 -102.066185
lfemur  -10.7717514 -18.04260063 -18.30551529
ltibia  1.330409646 0.9661129117 16.49100685
lfoot  0.488904953 -28.24308395 33.93361282
ltoes  -8.506763157 -18.16811184 -115.6267749
